<svg width="1920" height="1080" viewBox="0 0 1920 1080" fill="none" xmlns="http://www.w3.org/2000/svg">
  <defs>
    <clipPath id="clip0">
      <rect width="1920" height="1080" fill="white"/>
    </clipPath>
    <mask id="cutout">
      <rect width="1920" height="1080" fill="white"/>
      <g transform="translate(360, 90) scale(12.7)">
        <path d="M 49.366 63.575 L 49.366 54.591 L 66.993 54.591 L 66.993 63.624 Q 66.993 67.042 67.847 69.41 Q 68.702 71.778 71.68 71.778 Q 74.708 71.778 75.538 69.215 Q 76.368 66.651 76.368 60.841 L 76.368 58.692 Q 76.368 54.249 74.879 50.929 Q 73.389 47.608 69.044 47.608 Q 68.507 47.608 68.092 47.633 Q 67.677 47.657 67.384 47.706 L 67.384 32.276 Q 71.827 32.276 74.171 30.299 Q 76.514 28.321 76.514 23.683 Q 76.514 16.407 72.315 16.407 Q 69.581 16.407 68.629 18.531 Q 67.677 20.655 67.677 23.927 L 67.677 26.515 L 49.903 26.515 Q 49.854 25.929 49.83 25.099 Q 49.805 24.268 49.805 23.487 Q 49.805 11.671 55.323 6.153 Q 60.841 0.636 72.218 0.636 Q 94.19 0.636 94.19 23.487 Q 94.19 29.835 92.481 33.961 Q 90.772 38.087 86.134 39.747 Q 89.796 41.505 91.553 44.239 Q 93.311 46.974 93.848 51.026 Q 94.385 55.079 94.385 60.841 Q 94.385 73.731 88.99 80.714 Q 83.594 87.696 71.094 87.696 Q 59.718 87.696 54.542 81.69 Q 49.366 75.685 49.366 63.575 Z M 0.001 63.819 L 0.001 25.05 Q 0.001 12.94 5.64 6.471 Q 11.28 0.001 22.755 0.001 Q 34.278 0.001 39.893 6.471 Q 45.509 12.94 45.509 25.05 L 45.509 63.819 Q 45.509 75.294 39.6 81.397 Q 33.692 87.501 22.755 87.501 Q 11.866 87.501 5.933 81.397 Q 0.001 75.294 0.001 63.819 Z M 27.003 65.821 Q 27.003 68.067 25.88 69.874 Q 24.757 71.681 22.755 71.681 Q 20.802 71.681 19.654 69.874 Q 18.507 68.067 18.507 65.821 L 18.507 23.39 Q 18.507 20.362 19.166 18.092 Q 19.825 15.821 22.755 15.821 Q 25.684 15.821 26.343 18.092 Q 27.003 20.362 27.003 23.39 L 27.003 65.821 Z" fill="black"/>
      </g>
    </mask>
  </defs>

  <g clip-path="url(#clip0)">
    <rect width="1920" height="1080" fill="black" mask="url(#cutout)"/>
  </g>
</svg>
